<?xml version="1.0" encoding="UTF-8" standalone="no"?>
<svg
   xmlns:dc="http://purl.org/dc/elements/1.1/"
   xmlns:cc="http://creativecommons.org/ns#"
   xmlns:rdf="http://www.w3.org/1999/02/22-rdf-syntax-ns#"
   xmlns:svg="http://www.w3.org/2000/svg"
   xmlns="http://www.w3.org/2000/svg"
   xmlns:sodipodi="http://sodipodi.sourceforge.net/DTD/sodipodi-0.dtd"
   xmlns:inkscape="http://www.inkscape.org/namespaces/inkscape"
   version="1.1"
   width="32"
   height="32"
   viewBox="0 0 32 32"
   id="svg4"
   sodipodi:docname="robot-love-circle-pride-hearts.svg"
   inkscape:version="1.0 (4035a4fb49, 2020-05-01)">
  <metadata
     id="metadata10">
    <rdf:RDF>
      <cc:Work
         rdf:about="">
        <dc:format>image/svg+xml</dc:format>
        <dc:type
           rdf:resource="http://purl.org/dc/dcmitype/StillImage" />
        <dc:title></dc:title>
      </cc:Work>
    </rdf:RDF>
  </metadata>
  <defs
     id="defs8" />
  <sodipodi:namedview
     inkscape:document-rotation="0"
     pagecolor="#ffffff"
     bordercolor="#666666"
     borderopacity="1"
     objecttolerance="10"
     gridtolerance="10"
     guidetolerance="10"
     inkscape:pageopacity="0"
     inkscape:pageshadow="2"
     inkscape:window-width="1920"
     inkscape:window-height="1002"
     id="namedview6"
     showgrid="false"
     fit-margin-top="0"
     fit-margin-left="0"
     fit-margin-right="0"
     fit-margin-bottom="0"
     inkscape:zoom="20"
     inkscape:cx="16"
     inkscape:cy="16"
     inkscape:window-x="-8"
     inkscape:window-y="-8"
     inkscape:window-maximized="1"
     inkscape:current-layer="svg4" />
  <g
     id="g863"
     transform="matrix(0.01801802,0,0,0.00833333,8.9999992,16.18)">
    <rect
       id="rect837"
       height="480"
       width="777"
       fill="#750787"
       x="0"
       y="0" />
    <rect
       id="rect839"
       height="400"
       width="777"
       fill="#004dff"
       x="0"
       y="0" />
    <rect
       id="rect841"
       height="320"
       width="777"
       fill="#008026"
       x="0"
       y="0" />
    <rect
       id="rect843"
       height="240"
       width="777"
       fill="#ffed00"
       x="0"
       y="0" />
    <rect
       id="rect845"
       height="160"
       width="777"
       fill="#ff8c00"
       x="0"
       y="0" />
    <rect
       id="rect847"
       height="80"
       width="777"
       fill="#e40303"
       x="0"
       y="0" />
  </g>
  <path
     fill="#5286fa"
     d="m 26,16.5 h -1 c 0,-3.87 -3.13,-7 -7,-7 H 17 V 8.23 c 0.6,-0.34 1,-0.99 1,-1.73 0,-1.1 -0.89,-2 -2,-2 -1.11,0 -2,0.9 -2,2 0,0.74 0.4,1.39 1,1.73 V 9.5 h -1 c -3.87,0 -7.0000002,3.13 -7.0000002,7 h -1 c -0.55,0 -1,0.45 -1,1 v 3 c 0,0.55 0.45,1 1,1 h 1 v 1 c 0,1.11 0.9,2 2,2 H 23 c 1.11,0 2,-0.89 2,-2 v -1 h 1 c 0.55,0 1,-0.45 1,-1 v -3 c 0,-0.55 -0.45,-1 -1,-1 m -12.3,1.45 -0.73,0.73 -1.47,1.47 -2.2000002,-2.2 c -0.4,-0.4 -0.4,-1.06 0,-1.45 0.41,-0.42 1.0600002,-0.42 1.4700002,0 l 0.73,0.72 0.73,-0.72 c 0.41,-0.42 1.06,-0.42 1.47,0 0.4,0.39 0.4,1.05 0,1.45 m 9,0 -0.73,0.73 -1.47,1.47 -2.2,-2.2 c -0.4,-0.4 -0.4,-1.06 0,-1.45 0.41,-0.42 1.06,-0.42 1.47,0 l 0.73,0.72 0.73,-0.72 c 0.41,-0.42 1.06,-0.42 1.47,0 0.4,0.39 0.4,1.05 0,1.45 z"
     id="path2" />
  <circle
     style="fill:none;stroke:#5286fa;stroke-width:1.684;stroke-miterlimit:4;stroke-dasharray:none"
     id="path835"
     cx="16"
     cy="16"
     r="15.158" />
</svg>
