<?xml version="1.0" encoding="UTF-8" standalone="no"?>
<svg
   xmlns:dc="http://purl.org/dc/elements/1.1/"
   xmlns:cc="http://creativecommons.org/ns#"
   xmlns:rdf="http://www.w3.org/1999/02/22-rdf-syntax-ns#"
   xmlns:svg="http://www.w3.org/2000/svg"
   xmlns="http://www.w3.org/2000/svg"
   xmlns:sodipodi="http://sodipodi.sourceforge.net/DTD/sodipodi-0.dtd"
   xmlns:inkscape="http://www.inkscape.org/namespaces/inkscape"
   inkscape:version="1.0 (4035a4fb49, 2020-05-01)"
   sodipodi:docname="robot-love-circle-trans-blue.svg"
   id="svg4"
   viewBox="0 0 32 32"
   height="32"
   width="32"
   version="1.1">
  <metadata
     id="metadata10">
    <rdf:RDF>
      <cc:Work
         rdf:about="">
        <dc:format>image/svg+xml</dc:format>
        <dc:type
           rdf:resource="http://purl.org/dc/dcmitype/StillImage" />
        <dc:title></dc:title>
      </cc:Work>
    </rdf:RDF>
  </metadata>
  <defs
     id="defs8">
    <pattern
       id="pattern913"
       height="32.000002"
       width="32"
       patternUnits="userSpaceOnUse">
      <g
         transform="scale(0.04,0.06666667)"
         id="g915">
        <path
           fill="#5bcefa"
           d="M 0,0 H 800 V 480 H 0 Z"
           id="path898" />
        <path
           fill="#f5a9b8"
           d="M 0,96 H 800 V 384 H 0 Z"
           id="path900" />
        <path
           fill="#ffffff"
           d="m 0,192 h 800 v 96 H 0 Z"
           id="path902" />
      </g>
    </pattern>
  </defs>
  <sodipodi:namedview
     inkscape:current-layer="svg4"
     inkscape:window-maximized="1"
     inkscape:window-y="-8"
     inkscape:window-x="-8"
     inkscape:cy="16"
     inkscape:cx="16"
     inkscape:zoom="20"
     fit-margin-bottom="0"
     fit-margin-right="0"
     fit-margin-left="0"
     fit-margin-top="0"
     showgrid="false"
     id="namedview6"
     inkscape:window-height="1002"
     inkscape:window-width="1920"
     inkscape:pageshadow="2"
     inkscape:pageopacity="0"
     guidetolerance="10"
     gridtolerance="10"
     objecttolerance="10"
     borderopacity="1"
     bordercolor="#666666"
     pagecolor="#ffffff"
     inkscape:document-rotation="0" />
  <rect
     id="rect919"
     y="0"
     x="0"
     height="32.000004"
     width="32"
     style="display:none;fill:url(#pattern913);stroke:none" />
  <path
     style="fill:#5bcefa;fill-opacity:1"
     id="path2"
     d="m 26,16.5 h -1 c 0,-3.87 -3.13,-7 -7,-7 H 17 V 8.23 c 0.6,-0.34 1,-0.99 1,-1.73 0,-1.1 -0.89,-2 -2,-2 -1.11,0 -2,0.9 -2,2 0,0.74 0.4,1.39 1,1.73 V 9.5 h -1 c -3.87,0 -7.0000002,3.13 -7.0000002,7 h -1 c -0.55,0 -1,0.45 -1,1 v 3 c 0,0.55 0.45,1 1,1 h 1 v 1 c 0,1.11 0.9,2 2,2 H 23 c 1.11,0 2,-0.89 2,-2 v -1 h 1 c 0.55,0 1,-0.45 1,-1 v -3 c 0,-0.55 -0.45,-1 -1,-1 m -12.3,1.45 -0.73,0.73 -1.47,1.47 -2.2000002,-2.2 c -0.4,-0.4 -0.4,-1.06 0,-1.45 0.41,-0.42 1.0600002,-0.42 1.4700002,0 l 0.73,0.72 0.73,-0.72 c 0.41,-0.42 1.06,-0.42 1.47,0 0.4,0.39 0.4,1.05 0,1.45 m 9,0 -0.73,0.73 -1.47,1.47 -2.2,-2.2 c -0.4,-0.4 -0.4,-1.06 0,-1.45 0.41,-0.42 1.06,-0.42 1.47,0 l 0.73,0.72 0.73,-0.72 c 0.41,-0.42 1.06,-0.42 1.47,0 0.4,0.39 0.4,1.05 0,1.45 z"
     fill="#5286fa" />
  <circle
     r="15.158"
     cy="16"
     cx="16"
     id="path835"
     style="fill:none;stroke:url(#pattern913);stroke-width:1.684;stroke-miterlimit:4;stroke-dasharray:none" />
</svg>
